<?xml version="1.0" encoding="utf-8"?>
<!-- Generator: Adobe Illustrator 23.0.3, SVG Export Plug-In . SVG Version: 6.00 Build 0)  -->
<svg version="1.1" id="Layer_1" xmlns="http://www.w3.org/2000/svg" xmlns:xlink="http://www.w3.org/1999/xlink" x="0px" y="0px"
	 viewBox="0 0 83.6 70.8" style="enable-background:new 0 0 83.6 70.8;" xml:space="preserve">
<style type="text/css">
	.st0{fill:#196d79;}
</style>
<g>
	<path class="st0" d="M75.5,68.6H23.8V16.8h51.7V68.6z M25.9,66.5h47.6V18.9H25.9V66.5z"/>
	<path class="st0" d="M8.5,53.6c-0.6,0-1-0.5-1-1V2h51.9c0.6,0,1,0.5,1,1s-0.5,1-1,1H9.5v48.5C9.5,53.2,9.1,53.6,8.5,53.6z"/>
	<path class="st0" d="M16.2,61.3c-0.6,0-1-0.5-1-1V9.7H67c0.6,0,1,0.5,1,1c0,0.6-0.5,1-1,1H17.3v48.5C17.3,60.9,16.8,61.3,16.2,61.3
		z"/>
</g>
</svg>
