<?xml version="1.0" encoding="utf-8"?>
<!-- Generator: Adobe Illustrator 23.0.3, SVG Export Plug-In . SVG Version: 6.00 Build 0)  -->
<svg version="1.1" id="Layer_1" xmlns="http://www.w3.org/2000/svg" xmlns:xlink="http://www.w3.org/1999/xlink" x="0px" y="0px"
	 viewBox="0 0 83.6 70.8" style="enable-background:new 0 0 83.6 70.8;" xml:space="preserve">
<style type="text/css">
	.st0{fill:#196d79;}
</style>
<g>
	<path class="st0" d="M47.8,66.3H36c-0.6,0-1.1-0.5-1.1-1.1s0.5-1.1,1.1-1.1h11.8c0.6,0,1.1,0.5,1.1,1.1S48.4,66.3,47.8,66.3z"/>
	<path class="st0" d="M47.8,70.8H36c-0.6,0-1.1-0.5-1.1-1.1c0-0.6,0.5-1.1,1.1-1.1h11.8c0.6,0,1.1,0.5,1.1,1.1
		C48.9,70.3,48.4,70.8,47.8,70.8z"/>
	<path class="st0" d="M41.9,6c-0.6,0-1.1-0.5-1.1-1.1V1.1c0-0.6,0.5-1.1,1.1-1.1S43,0.5,43,1.1v3.7C43,5.5,42.5,6,41.9,6z"/>
	<path class="st0" d="M23.3,13.8c-0.3,0-0.6-0.1-0.8-0.3l-2.6-2.6c-0.4-0.4-0.4-1.1,0-1.6s1.1-0.4,1.6,0l2.6,2.6
		c0.4,0.4,0.4,1.1,0,1.6C23.9,13.7,23.6,13.8,23.3,13.8z"/>
	<path class="st0" d="M59.8,13.8c-0.3,0-0.6-0.1-0.8-0.3c-0.4-0.4-0.4-1.1,0-1.6l2.6-2.6c0.4-0.4,1.1-0.4,1.6,0
		c0.4,0.4,0.4,1.1,0,1.6l-2.6,2.6C60.4,13.7,60.1,13.8,59.8,13.8z"/>
	<path class="st0" d="M71,30.2h-3.7c-0.6,0-1.1-0.5-1.1-1.1c0-0.6,0.5-1.1,1.1-1.1H71c0.6,0,1.1,0.5,1.1,1.1
		C72.1,29.7,71.6,30.2,71,30.2z"/>
	<path class="st0" d="M16.7,30.2h-3.7c-0.6,0-1.1-0.5-1.1-1.1c0-0.6,0.5-1.1,1.1-1.1h3.7c0.6,0,1.1,0.5,1.1,1.1
		C17.8,29.7,17.3,30.2,16.7,30.2z"/>
	<path class="st0" d="M20.6,50.4c-0.3,0-0.6-0.1-0.8-0.3c-0.4-0.4-0.4-1.1,0-1.6l2.6-2.6c0.4-0.4,1.1-0.4,1.6,0
		c0.4,0.4,0.4,1.1,0,1.6l-2.6,2.6C21.2,50.3,20.9,50.4,20.6,50.4z"/>
	<path class="st0" d="M62.6,50.4c-0.3,0-0.6-0.1-0.8-0.3l-2.6-2.6c-0.4-0.4-0.4-1.1,0-1.6c0.4-0.4,1.1-0.4,1.6,0l2.6,2.6
		c0.4,0.4,0.4,1.1,0,1.6C63.1,50.3,62.8,50.4,62.6,50.4z"/>
	<path class="st0" d="M45.2,61.5h-6.5c-2.6,0-4.8-2.1-4.8-4.8v-6.1c0-3-3.1-5.8-5-7.5c-0.2-0.2-0.4-0.3-0.6-0.5
		c-3.5-3.2-5.8-8.6-5.8-13.8c0-10.6,8.6-19.3,19.2-19.4v0l0.2,0c10.6,0.1,19.2,8.8,19.2,19.4c0,5.2-2.3,10.6-5.8,13.8
		c-0.2,0.2-0.4,0.3-0.6,0.5c-1.9,1.7-5,4.5-5,7.5v6.1C49.9,59.4,47.8,61.5,45.2,61.5z M41.8,58.7h3.3c1.1,0,2-0.9,2-2l0-6.7
		c0.3-4,3.8-7.1,5.9-9c0.2-0.2,0.4-0.3,0.5-0.5c2.9-2.7,4.8-7.3,4.8-11.7c0-9.1-7.4-16.6-16.5-16.6c-9.1,0.1-16.5,7.5-16.5,16.6
		c0,4.4,1.9,9,4.8,11.7c0.2,0.2,0.3,0.3,0.5,0.5c2.1,1.9,5.6,5.1,5.9,9h0v6.7c0,1.1,0.9,2,2,2H41.8z"/>
</g>
</svg>
