<svg xmlns="http://www.w3.org/2000/svg" width="24" height="24" viewBox="0 0 24 24">
    <path fill="none" fill-rule="evenodd" stroke="#196D79" stroke-width="1.5" d="M18.865 23.233h.001s.001 0 0 0zm.002 0h-.003a5.815 5.815 0 0 0 2.707-1.056l.158-.085.995-.977v.001l-.003.003c.69-.694.704-1.798.047-2.458l-3.502-3.51a1.652 1.652 0 0 0-1.18-.483c-.476 0-.924.187-1.267.53l-1.812 1.817-.495-.275c-1.78-.99-2.884-1.746-4.179-3.044C9.04 12.4 8.284 11.293 7.295 9.51l-.274-.494.4-.4L8.833 7.2c.69-.692.705-1.796.047-2.456L5.378 1.233A1.646 1.646 0 0 0 4.2.75c-.477 0-.924.187-1.267.531l-.973.98-.03.095-.07.099a5.668 5.668 0 0 0-.682 1.256 5.875 5.875 0 0 0-.356 1.437c-.457 3.799 1.249 7.266 6.02 12.046 2.397 2.403 4.884 4.126 7.388 5.128 1.668.668 3.102.928 4.228.928.181 0 .317-.007.407-.017zm2.864-1.142l.024-.013a.096.096 0 0 0-.024.013zm.99-.972v-.001h.001z"/>
</svg>
