<svg xmlns="http://www.w3.org/2000/svg" width="18" height="24" viewBox="0 0 18 24">
    <g fill="none" fill-rule="evenodd" stroke="#196D79" stroke-width="1.5">
        <path d="M8.721 22.374l3.263-4.463c.264-.361.542-.726.889-1.168-.023.028.963-1.22 1.228-1.564 1.841-2.396 2.604-4.029 2.604-6.165 0-4.38-3.574-7.9-7.978-7.9-4.453 0-7.977 3.493-7.977 7.9 0 2.148.751 3.797 2.547 6.17.286.376 1.338 1.722 1.351 1.74.282.364.52.679.742.982l3.331 4.468z"/>
        <path d="M8.763 6.205a2.938 2.938 0 0 0-2.922 2.922c0 1.584 1.302 2.85 2.922 2.85a2.816 2.816 0 0 0 2.85-2.85c0-1.62-1.266-2.922-2.85-2.922z"/>
    </g>
</svg>
