<?xml version="1.0" encoding="utf-8"?>
<!-- Generator: Adobe Illustrator 23.0.3, SVG Export Plug-In . SVG Version: 6.00 Build 0)  -->
<svg version="1.1" id="Layer_1" xmlns="http://www.w3.org/2000/svg" xmlns:xlink="http://www.w3.org/1999/xlink" x="0px" y="0px"
	 viewBox="0 0 83.6 70.8" style="enable-background:new 0 0 83.6 70.8;" xml:space="preserve">
<style type="text/css">
	.st0{fill:#196d79;}
</style>
<g>
	<g>
		<g>
			<path class="st0" d="M32,42c-0.3,0-0.5-0.1-0.7-0.3L14.1,24.5c-3.1-3.2-3.6-8.1-1.3-11.9c0.2-0.3,0.4-0.4,0.8-0.5
				c0.3,0,0.6,0.1,0.9,0.3l6,6c0.3,0.3,0.9,0.3,1.2,0c0.3-0.3,0.3-0.9,0-1.2l-6-6c-0.2-0.2-0.3-0.5-0.3-0.9c0-0.3,0.2-0.6,0.5-0.8
				c3.8-2.4,8.7-1.9,11.9,1.3l16,16c0.4,0.4,0.4,0.9,0.1,1.3l-5.4,7.5l4.3,4.3c0.2,0.2,0.3,0.5,0.3,0.7s-0.1,0.5-0.3,0.7
				c-0.4,0.4-1.1,0.4-1.5,0l-4.2-4.2l-4.4,4.4C32.6,41.9,32.3,42,32,42z M14,15c-1.1,2.7-0.5,5.9,1.6,8.1L32,39.5l4.3-4.3l5.4-7.4
				L26.3,12.4c-2.2-2.2-5.3-2.7-8.1-1.6l5,5c1.1,1.1,1.1,3,0,4.2c-1.1,1.1-3,1.1-4.2,0L14,15z"/>
			<path class="st0" d="M57.8,64.1c-2.5,0-4.9-0.9-6.8-2.8L36.3,46.5C36.1,46.3,36,46,36,45.8c0-0.3,0.1-0.5,0.3-0.7l5.1-5
				c0,0,0.1-0.1,0.1-0.1l8.1-5.8c0.4-0.3,1-0.3,1.3,0.1l13.6,13.6l0,0c1.8,1.8,2.8,4.3,2.8,6.8c0,2.5-1,4.9-2.8,6.6
				C62.7,63.1,60.3,64.1,57.8,64.1z M38.5,45.8l14,14c2.9,2.9,7.7,2.9,10.6,0c1.4-1.4,2.2-3.2,2.2-5.1c0-2-0.8-3.9-2.2-5.3l-13-13
				l-7.3,5.3L38.5,45.8z"/>
		</g>
		<path class="st0" d="M21.1,20.8c-0.8,0-1.5-0.3-2.1-0.8l-8.8-8.8C9.6,10.6,9.3,9.8,9.3,9S9.6,7.5,10.2,7c1.1-1.1,3-1.1,4.2,0
			l8.8,8.8v0v0c0.5,0.5,0.9,1.3,0.9,2.1s-0.3,1.5-0.9,2.1C22.6,20.5,21.9,20.8,21.1,20.8z M12.3,8.2c-0.2,0-0.5,0.1-0.6,0.2
			c-0.2,0.2-0.2,0.4-0.2,0.6c0,0.2,0.1,0.5,0.2,0.6l8.8,8.8c0.3,0.3,0.9,0.3,1.2,0c0.2-0.2,0.2-0.4,0.2-0.6c0-0.2-0.1-0.5-0.2-0.6
			c0,0,0,0,0,0l-8.8-8.8C12.7,8.3,12.5,8.2,12.3,8.2z"/>
		<path class="st0" d="M68.1,67.6c-0.8,0-1.5-0.3-2.1-0.8l-4.3-4.3c-0.2-0.2-0.3-0.5-0.3-0.9c0-0.3,0.2-0.6,0.5-0.8
			c0.4-0.3,0.9-0.6,1.3-1c0.4-0.4,0.7-0.8,1-1.3c0.2-0.3,0.4-0.5,0.8-0.5c0.3,0,0.6,0.1,0.9,0.3l4.3,4.3c1.2,1.2,1.2,3,0.1,4.1
			C69.6,67.3,68.9,67.6,68.1,67.6z M64.1,61.9l3.4,3.4c0.3,0.3,0.9,0.3,1.2,0c0.3-0.3,0.2-0.8-0.1-1.1l0,0l-3.4-3.4
			c-0.2,0.2-0.4,0.4-0.5,0.6C64.5,61.5,64.3,61.7,64.1,61.9z"/>
		<path class="st0" d="M20.9,27.3c-2.5,0-4.9-0.9-6.8-2.8c-3.1-3.2-3.6-8.1-1.3-11.9c0.2-0.3,0.4-0.4,0.8-0.5c0.3,0,0.6,0.1,0.9,0.3
			l6,6c0.3,0.3,0.9,0.3,1.2,0c0.3-0.3,0.3-0.9,0-1.2l-6-6c-0.2-0.2-0.3-0.5-0.3-0.9c0-0.3,0.2-0.6,0.5-0.8c3.8-2.4,8.7-1.9,11.9,1.3
			c3.7,3.7,3.7,9.8-0.1,13.6C25.8,26.4,23.3,27.3,20.9,27.3z M14,15c-1.1,2.7-0.5,5.9,1.6,8.1c2.9,2.9,7.7,2.9,10.6,0
			c3-3,3-7.8,0.1-10.7c-2.2-2.2-5.3-2.7-8.1-1.6l5,5c1.1,1.1,1.1,3,0,4.2c-1.1,1.1-3,1.1-4.2,0L14,15z"/>
		<path class="st0" d="M12.3,11.8c-0.7,0-1.5-0.3-2.1-0.9c-0.6-0.5-0.9-1.3-0.9-2.1c0-0.8,0.3-1.5,0.9-2.1c0,0,0,0,0,0
			c1.1-1.1,3-1.1,4.1,0c1.1,1.1,1.1,3,0,4.1C13.8,11.6,13,11.8,12.3,11.8z M11.7,8.3c-0.2,0.2-0.2,0.4-0.2,0.6
			c0,0.2,0.1,0.4,0.2,0.6c0.3,0.3,0.9,0.3,1.2,0c0.3-0.3,0.3-0.9,0-1.2C12.5,8,12,8,11.7,8.3L11.7,8.3z"/>
	</g>
	<g>
		<path class="st0" d="M20.8,63c-0.3,0-0.5-0.1-0.7-0.3l-4.9-4.9c-0.2-0.2-0.3-0.5-0.3-0.7c0-0.3,0.1-0.5,0.3-0.7l21.3-21.3
			c0.4-0.4,1.1-0.4,1.5,0l4.9,4.9c0.2,0.2,0.3,0.5,0.3,0.7c0,0.3-0.1,0.5-0.3,0.7L21.5,62.7C21.3,62.9,21,63,20.8,63z M17.4,57.1
			l3.4,3.4l19.9-19.9l-3.4-3.4L17.4,57.1z"/>
		<path class="st0" d="M15.9,66.4c-1.1,0-2.3-0.4-3.2-1.3c-0.8-0.8-1.3-2-1.3-3.2s0.5-2.3,1.3-3.2l0,0l0,0c1.7-1.7,4.6-1.7,6.3,0
			c0.8,0.8,1.3,2,1.3,3.2s-0.5,2.3-1.3,3.2C18.2,66,17.1,66.4,15.9,66.4z M15.9,59.6c-0.6,0-1.2,0.2-1.7,0.7l0,0
			c-0.5,0.5-0.7,1.1-0.7,1.7s0.2,1.2,0.7,1.7c0.9,0.9,2.5,0.9,3.4,0c0.5-0.5,0.7-1.1,0.7-1.7s-0.2-1.2-0.7-1.7S16.5,59.6,15.9,59.6z
			 M13.5,59.5L13.5,59.5L13.5,59.5z"/>
		<path class="st0" d="M42.2,41.8c-0.3,0-0.5-0.1-0.7-0.3l-4.9-4.9c-0.4-0.4-0.4-0.9-0.1-1.3L55,9.3c0.4-1,1.1-1.9,1.9-2.7
			c1.9-1.9,4.4-3,7.1-3c0,0,0,0,0.1,0c2.7,0,5.3,1.1,7.3,3c1.9,1.9,3,4.4,3,7.1c0,2.8-1.1,5.4-3,7.3l0,0c-0.8,0.8-1.8,1.5-2.7,1.9
			L42.8,41.6C42.6,41.7,42.4,41.8,42.2,41.8z M38.7,35.8l3.6,3.6l25.3-18.2c0.1,0,0.1-0.1,0.2-0.1c0.8-0.3,1.5-0.9,2.2-1.6l0,0
			c1.6-1.6,2.4-3.7,2.4-5.9c0-2.2-0.9-4.2-2.4-5.7c-1.6-1.6-3.6-2.4-5.9-2.4C62,5.6,60,6.5,58.5,8c-0.7,0.7-1.2,1.4-1.6,2.2
			c0,0.1-0.1,0.1-0.1,0.2L38.7,35.8z"/>
		<path class="st0" d="M38.7,38.3c-0.2,0-0.4-0.1-0.6-0.2c-0.5-0.4-0.5-1-0.2-1.5C38,36.4,53,17.1,58.7,10.8
			c5.9-6.6,9.6-6.3,9.9-6.3c0.6,0.1,1,0.6,0.9,1.2c-0.1,0.6-0.6,1-1.1,0.9c-0.1,0-3.1,0-8.2,5.6c-5.6,6.2-20.6,25.4-20.8,25.6
			C39.3,38.1,39,38.3,38.7,38.3z"/>
		<path class="st0" d="M40.4,40c-0.3,0-0.6-0.1-0.8-0.4c-0.4-0.5-0.3-1.1,0.2-1.5C40,38,59.2,23.1,65.4,17.4
			c5.7-5.2,5.6-8.1,5.6-8.2c0-0.6,0.4-1.1,0.9-1.1c0.6,0,1.1,0.3,1.1,0.9c0,0.4,0.3,4-6.3,9.9c-6.3,5.7-25.6,20.7-25.7,20.8
			C40.9,40,40.7,40,40.4,40z"/>
		<path class="st0" d="M39.7,39.3c-0.3,0-0.5-0.1-0.7-0.3c-0.4-0.4-0.4-1.1,0-1.5L70,6.4C70.4,6,71,6,71.4,6.4
			c0.4,0.4,0.4,1.1,0,1.5L40.5,39C40.3,39.2,40,39.3,39.7,39.3z"/>
	</g>
</g>
</svg>
