<?xml version="1.0" encoding="utf-8"?>
<!-- Generator: Adobe Illustrator 23.0.3, SVG Export Plug-In . SVG Version: 6.00 Build 0)  -->
<svg version="1.1" id="Layer_1" xmlns="http://www.w3.org/2000/svg" xmlns:xlink="http://www.w3.org/1999/xlink" x="0px" y="0px"
	 viewBox="0 0 83.6 70.8" style="enable-background:new 0 0 83.6 70.8;" xml:space="preserve">
<style type="text/css">
	.st0{fill:#196d79;}
</style>
<g>
	<path class="st0" d="M20.3,56.8h-5c-0.5,0-0.9-0.3-1.1-0.8c-0.4-1.4-9.1-33.5-9.5-35.2c-0.2-0.6,0-1.3,0.4-1.8
		c0.9-1,2.7-0.9,3.3-0.9c0.1,0,0.3,0.1,0.4,0.1c9.7,5,12.5,36,12.6,37.3c0,0.3-0.1,0.6-0.3,0.8C20.9,56.6,20.6,56.8,20.3,56.8z
		 M16.2,54.5h2.9C18.1,45.2,14.7,24.1,8,20.3c-0.4,0-0.8,0-1,0.1C7.4,22.1,13,42.9,16.2,54.5z"/>
	<path class="st0" d="M20.3,56.8c-0.6,0-1.1-0.5-1.1-1.1l-0.6-21.6c0-0.3,0.1-0.5,0.2-0.7l3.2-4.2c0.6-10.1-1.1-12.7-1.9-13.4
		c-0.4-0.3-0.7-0.3-0.7-0.3L7.2,20.4c-0.6,0.2-1.2-0.1-1.4-0.6c-0.2-0.6,0.1-1.2,0.6-1.4l12.4-4.8c0.2-0.1,1.4-0.4,2.7,0.5
		c2.4,1.8,3.4,7.1,2.8,15.7c0,0.2-0.1,0.4-0.2,0.6l-3.2,4.1l0.5,21.2C21.4,56.2,21,56.7,20.3,56.8C20.3,56.8,20.3,56.8,20.3,56.8z"
		/>
	<path class="st0" d="M68.3,56.8h-5c-0.3,0-0.6-0.1-0.8-0.4c-0.2-0.2-0.3-0.5-0.3-0.8c0.1-1.3,2.9-32.3,12.6-37.3
		c0.1-0.1,0.2-0.1,0.4-0.1c0.5-0.1,2.4-0.2,3.3,0.9c0.4,0.5,0.6,1.2,0.4,1.9c-0.3,1.6-9.1,33.7-9.4,35.1
		C69.2,56.4,68.8,56.8,68.3,56.8z M64.5,54.5h2.9c3.2-11.6,8.8-32.5,9.2-34.2c-0.2-0.1-0.6-0.1-1-0.1C68.9,24.1,65.5,45.2,64.5,54.5
		z"/>
	<path class="st0" d="M63.3,56.8C63.3,56.8,63.3,56.8,63.3,56.8c-0.6,0-1.1-0.5-1.1-1.1l0.5-21.2l-3.2-4.1c-0.1-0.2-0.2-0.4-0.2-0.6
		c-0.5-8.6,0.4-13.9,2.8-15.7c1.3-1,2.5-0.6,2.6-0.5l12.5,4.8c0.6,0.2,0.9,0.9,0.6,1.4c-0.2,0.6-0.9,0.9-1.4,0.6L64,15.6
		c0,0-0.2,0-0.6,0.3c-0.8,0.6-2.5,3.2-1.9,13.4l3.2,4.2c0.2,0.2,0.2,0.5,0.2,0.7l-0.6,21.6C64.4,56.3,63.9,56.8,63.3,56.8z"/>
	<path class="st0" d="M63.4,56.8H20c-0.6,0-1.1-0.5-1.1-1.1V43.8c0-0.6,0.5-1.1,1.1-1.1h43.4c0.6,0,1.1,0.5,1.1,1.1v11.9
		C64.5,56.3,64,56.8,63.4,56.8z M21.1,54.5h41.2v-9.7H21.1V54.5z"/>
	<path class="st0" d="M63.4,45.4H20c-0.6,0-1.1-0.5-1.1-1.1V34c0-0.6,0.5-1.1,1.1-1.1h43.4c0.6,0,1.1,0.5,1.1,1.1v10.3
		C64.5,44.9,64,45.4,63.4,45.4z M21.1,43.2h41.2v-8.1H21.1V43.2z"/>
	<path class="st0" d="M23.1,30.8c-0.5,0-0.9-0.3-1.1-0.8c-0.2-0.6,0.2-1.2,0.8-1.4c7-1.9,18.4-1.6,18.9-1.6c0,0,0,0,0,0
		c20,0,20,1.7,20,2.7c0,0.6-0.5,1.1-1.1,1.1c-0.3,0-0.6-0.1-0.8-0.4c-0.5-0.2-3.5-1.2-18-1.2c-0.1,0-11.6-0.3-18.3,1.5
		C23.3,30.7,23.2,30.8,23.1,30.8z M59.4,29.7c0,0.1,0,0.1,0,0.2C59.4,29.8,59.4,29.7,59.4,29.7z M59.4,29.6
		C59.4,29.6,59.4,29.6,59.4,29.6C59.4,29.6,59.4,29.6,59.4,29.6z"/>
	<path class="st0" d="M24.8,29.5c-0.1,0-0.3,0-0.4-0.1c-0.7-0.3-0.7-0.9-0.7-1.5c-0.3-10-2.8-12-4.3-12.3c-0.1,0-1.6-0.2-2.2-1.5
		c-0.5-1.1-0.2-2.4,0.8-4l0.1-0.2C20.7,5.8,22.7,4,42.3,4c18.8,0.1,20.5,1.6,22.8,5.4c0.1,0.2,0.3,0.4,0.4,0.7c0,0,0,0,0,0
		c1,1.5,1.2,2.9,0.8,3.9c-0.3,0.8-1.1,1.4-2.1,1.6c0,0-0.1,0-0.1,0c-2.4,0.4-3.6,4.9-3.2,12.2c0,0.6,0.1,1.3-0.6,1.6
		c-0.1,0.1-0.3,0.1-0.5,0.1c0,0-1.5,0-3.5-0.1c-4.7-0.1-13.6-0.3-14-0.3c-0.9,0-16.1,0.2-17.3,0.3C24.9,29.5,24.8,29.5,24.8,29.5z
		 M42.3,27c0.4,0,7.5,0.1,14.1,0.3c0.9,0,1.7,0,2.3,0c-0.3-8.5,1.3-13.1,5-13.8c0,0,0,0,0,0c0.2,0,0.5-0.2,0.6-0.3
		c0.1-0.3,0-0.9-0.6-1.9c-0.2-0.2-0.3-0.5-0.4-0.7c-1.7-2.7-2.7-4.3-21-4.4C23.1,6.2,22,7.9,19.9,11l-0.1,0.2
		c-0.7,1-0.8,1.6-0.7,1.9c0.1,0.2,0.5,0.3,0.5,0.3c3.8,0.8,5.8,5.4,6.2,13.8c1.3-0.1,3.5-0.1,7.5-0.2C37.6,27,42,27,42.3,27z"/>
	<path class="st0" d="M63.2,66.9h-2.1c-0.5,0-0.9-0.3-1.1-0.8L57,56c-0.2-0.6,0.2-1.2,0.7-1.4c0.6-0.2,1.2,0.2,1.4,0.7l2.8,9.3h0.2
		v-9c0-0.6,0.5-1.1,1.1-1.1c0.6,0,1.1,0.5,1.1,1.1v10.1C64.3,66.4,63.8,66.9,63.2,66.9z"/>
	<path class="st0" d="M22.7,66.9h-2c-0.6,0-1.1-0.5-1.1-1.1V55.6c0-0.6,0.5-1.1,1.1-1.1c0.6,0,1.1,0.5,1.1,1.1v9h0.1l2.8-9.3
		c0.2-0.6,0.8-0.9,1.4-0.7c0.6,0.2,0.9,0.8,0.7,1.4l-3,10.1C23.6,66.5,23.1,66.9,22.7,66.9z"/>
</g>
</svg>
