<?xml version="1.0" encoding="utf-8"?>
<!-- Generator: Adobe Illustrator 23.0.3, SVG Export Plug-In . SVG Version: 6.00 Build 0)  -->
<svg version="1.1" id="Layer_1" xmlns="http://www.w3.org/2000/svg" xmlns:xlink="http://www.w3.org/1999/xlink" x="0px" y="0px"
	 viewBox="0 0 83.6 70.8" style="enable-background:new 0 0 83.6 70.8;" xml:space="preserve">
<style type="text/css">
	.st0{fill:#196d79;}
</style>
<g>
	<path class="st0" d="M78.7,65.6c0,0-0.1,0-0.1,0l-28.9-3.2v1.2c0,0.6-0.5,1.1-1.1,1.1H35.2c-0.6,0-1.1-0.5-1.1-1.1v-1.2L5.2,65.6
		c-0.3,0-0.6-0.1-0.9-0.3C4.1,65.1,4,64.8,4,64.5V16.4c0-0.6,0.5-1.1,1.1-1.1h5.2c0.4,0,0.7,0.2,0.9,0.5c0.2,0.3,0.2,0.7,0.1,1.1
		c0,0,0,0.2,0,0.3v41.3c2.9-2.7,8.3-4.4,14.7-4.4s11.8,1.8,14.7,4.4V17.2c0-0.1,0-0.3,0-0.3c-0.2-0.3-0.1-0.7,0.1-1.1
		c0.2-0.3,0.6-0.5,1-0.5h0.6c0.4,0,0.7,0.2,0.9,0.5c0.2,0.3,0.2,0.7,0,1.1c0,0,0,0.2,0,0.3v41.3c2.9-2.7,8.3-4.4,14.7-4.4
		s11.8,1.8,14.7,4.4V17.2c0-0.1,0-0.3,0-0.3c-0.2-0.3-0.1-0.7,0.1-1.1c0.2-0.3,0.6-0.5,1-0.5h5.1c0.6,0,1.1,0.5,1.1,1.1v48.1
		c0,0.3-0.1,0.6-0.4,0.8C79.2,65.5,78.9,65.6,78.7,65.6z M6.2,17.5v45.7L9.1,63V17.5H6.2z M74.8,63l2.8,0.3V17.5h-2.8V63
		C74.8,63,74.8,63,74.8,63z M48.5,60.1c0,0,0.1,0,0.1,0l23.9,2.6c-0.4-3.2-6.3-6.4-14.6-6.4c-7.6,0-14.1,2.8-14.6,6.2h4.2v-1.3
		c0-0.3,0.1-0.6,0.4-0.8C48,60.2,48.3,60.1,48.5,60.1z M26,56.3c-7.8,0-14.3,2.9-14.7,6.4l23.8-2.6c0.3,0,0.6,0.1,0.9,0.3
		s0.4,0.5,0.4,0.8v1.3h4.3C40,59.4,34.2,56.3,26,56.3z"/>
	<g>
		<path class="st0" d="M42.2,64.2c-0.6,0-1.1-0.5-1.1-1.1s0.5-1.1,1.1-1.1h0c0.6,0,1.1,0.5,1.1,1.1S42.9,64.2,42.2,64.2z"/>
		<path class="st0" d="M73.7,64.2c-0.6,0-1.1-0.5-1.1-1.1s0.5-1.1,1.1-1.1h0c0.6,0,1.1,0.5,1.1,1.1S74.3,64.2,73.7,64.2z"/>
		<path class="st0" d="M73.7,64.1c-0.6,0-1.1-0.5-1.1-1.1c0-3.6-6.7-6.7-14.7-6.7c-8.6,0-14.7,3.5-14.7,6.7c0,0.6-0.5,1.1-1.1,1.1
			S41,63.6,41,63V17.2c0.1-4.9,7.5-8.8,16.9-8.8c9.3,0,16.8,3.8,16.9,8.7c0,0,0,0,0,0V63C74.8,63.6,74.3,64.1,73.7,64.1z M57.9,54.1
			c6.3,0,11.8,1.8,14.7,4.4V17.2c-0.1-3.2-6-6.6-14.7-6.6c-8.7,0-14.6,3.4-14.7,6.6l0,41.3C46.1,55.8,51.5,54.1,57.9,54.1z"/>
	</g>
	<g>
		<path class="st0" d="M10.6,64.2c-0.6,0-1.1-0.5-1.1-1.1S10,62,10.6,62h0c0.6,0,1.1,0.5,1.1,1.1S11.2,64.2,10.6,64.2z"/>
		<path class="st0" d="M42,64.2c-0.6,0-1.2-0.5-1.2-1.1c0-0.6,0.5-1.1,1.1-1.1s1.1,0.5,1.1,1.2S42.6,64.2,42,64.2z M40.9,63.1H42
			H40.9z"/>
		<path class="st0" d="M42,64.1c-0.6,0-1.1-0.5-1.1-1.1c0-3.6-6.7-6.7-14.7-6.7c-8.6,0-14.7,3.5-14.7,6.7c0,0.6-0.5,1.1-1.1,1.1
			c-0.6,0-1.1-0.5-1.1-1.1V17.2c0.1-4.9,7.5-8.8,16.9-8.8c9.3,0,16.8,3.8,16.9,8.7c0,0,0,0,0,0V63C43.1,63.6,42.6,64.1,42,64.1z
			 M26.2,10.6c-8.7,0-14.6,3.4-14.7,6.6l0,41.3c2.9-2.7,8.3-4.4,14.7-4.4s11.8,1.8,14.7,4.4V17.2C40.8,14,34.9,10.6,26.2,10.6z"/>
	</g>
	<path class="st0" d="M67.5,24.3H48.4c-0.6,0-1.1-0.5-1.1-1.1c0-0.6,0.5-1.1,1.1-1.1h19.1c0.6,0,1.1,0.5,1.1,1.1
		C68.7,23.8,68.2,24.3,67.5,24.3z"/>
	<path class="st0" d="M67.5,29.9H48.4c-0.6,0-1.1-0.5-1.1-1.1c0-0.6,0.5-1.1,1.1-1.1h19.1c0.6,0,1.1,0.5,1.1,1.1
		C68.7,29.4,68.2,29.9,67.5,29.9z"/>
	<path class="st0" d="M67.5,35.4H48.4c-0.6,0-1.1-0.5-1.1-1.1c0-0.6,0.5-1.1,1.1-1.1h19.1c0.6,0,1.1,0.5,1.1,1.1
		C68.7,34.9,68.2,35.4,67.5,35.4z"/>
	<path class="st0" d="M36.4,24.3H17.3c-0.6,0-1.1-0.5-1.1-1.1c0-0.6,0.5-1.1,1.1-1.1h19.1c0.6,0,1.1,0.5,1.1,1.1
		C37.6,23.8,37.1,24.3,36.4,24.3z"/>
	<path class="st0" d="M36.4,29.9H17.3c-0.6,0-1.1-0.5-1.1-1.1c0-0.6,0.5-1.1,1.1-1.1h19.1c0.6,0,1.1,0.5,1.1,1.1
		C37.6,29.4,37.1,29.9,36.4,29.9z"/>
	<path class="st0" d="M36.4,35.4H17.3c-0.6,0-1.1-0.5-1.1-1.1c0-0.6,0.5-1.1,1.1-1.1h19.1c0.6,0,1.1,0.5,1.1,1.1
		C37.6,34.9,37.1,35.4,36.4,35.4z"/>
</g>
</svg>
